<svg width="24" height="24" viewBox="0 0 24 24" fill="none" xmlns="http://www.w3.org/2000/svg">
<path d="M0 3.69048C0 1.65229 1.65229 0 3.69048 0H16.9762C19.0144 0 20.6667 1.65229 20.6667 3.69048V9.74243C19.5594 9.17641 18.3051 8.85714 16.9762 8.85714C12.4921 8.85714 8.85714 12.4921 8.85714 16.9762C8.85714 18.3051 9.17641 19.5594 9.74243 20.6667H3.69048C1.65229 20.6667 0 19.0144 0 16.9762V3.69048ZM8.64095 5.68857C8.92921 5.40033 8.92921 4.933 8.64095 4.64476C8.35271 4.3565 7.88538 4.3565 7.59714 4.64476L5.16667 7.07522L4.21238 6.12095C3.92414 5.83269 3.45681 5.83269 3.16857 6.12095C2.88031 6.40919 2.88031 6.87652 3.16857 7.16476L4.64476 8.64095C4.933 8.92921 5.40033 8.92921 5.68857 8.64095L8.64095 5.68857ZM8.64095 12.0256C8.35271 11.7375 7.88538 11.7375 7.59714 12.0256L5.16667 14.4562L4.21238 13.5018C3.92414 13.2137 3.45681 13.2137 3.16857 13.5018C2.88031 13.7901 2.88031 14.2575 3.16857 14.5458L4.64476 16.022C4.933 16.3101 5.40033 16.3101 5.68857 16.022L8.64095 13.0696C8.92921 12.7813 8.92921 12.3139 8.64095 12.0256ZM11.0714 5.90476C10.6639 5.90476 10.3333 6.23522 10.3333 6.64286C10.3333 7.05049 10.6639 7.38095 11.0714 7.38095H15.5C15.9076 7.38095 16.2381 7.05049 16.2381 6.64286C16.2381 6.23522 15.9076 5.90476 15.5 5.90476H11.0714Z" fill="#D9D9D9"/>
<path d="M16.9762 23.6191C20.645 23.6191 23.619 20.645 23.619 16.9762C23.619 13.3075 20.645 10.3334 16.9762 10.3334C13.3074 10.3334 10.3333 13.3075 10.3333 16.9762C10.3333 20.645 13.3074 23.6191 16.9762 23.6191ZM16.9762 13.2858C17.3838 13.2858 17.7143 13.6163 17.7143 14.0239V16.2381H19.9286C20.3361 16.2381 20.6667 16.5687 20.6667 16.9762C20.6667 17.3838 20.3361 17.7143 19.9286 17.7143H17.7143V19.9286C17.7143 20.3362 17.3838 20.6667 16.9762 20.6667C16.5686 20.6667 16.2381 20.3362 16.2381 19.9286V17.7143H14.0238C13.6162 17.7143 13.2857 17.3838 13.2857 16.9762C13.2857 16.5687 13.6162 16.2381 14.0238 16.2381H16.2381V14.0239C16.2381 13.6163 16.5686 13.2858 16.9762 13.2858Z" fill="#D9D9D9"/>
</svg>
